<?xml version="1.0" encoding="UTF-8" standalone="no"?><!DOCTYPE svg PUBLIC "-//W3C//DTD SVG 1.1//EN" "http://www.w3.org/Graphics/SVG/1.1/DTD/svg11.dtd"><svg width="100%" height="100%" viewBox="0 0 130 40" version="1.1" xmlns="http://www.w3.org/2000/svg" xmlns:xlink="http://www.w3.org/1999/xlink" xml:space="preserve" style="fill-rule:evenodd;clip-rule:evenodd;stroke-linejoin:round;stroke-miterlimit:1.41421;"><rect id="Logo-Gray" x="0" y="0" width="130" height="40" style="fill:none;"/><g transform="matrix(1,0,0,1.09207,-487.979,-2.46704)"><clipPath id="_clip1"><path d="M502.051,26.561c-1.28,-0.739 -1.92,-1.871 -1.92,-3.395c0,-0.806 0.152,-1.421 0.456,-1.846c0.304,-0.425 0.752,-0.637 1.344,-0.637c0.432,0 0.784,0.102 1.056,0.307c0.272,0.206 0.408,0.469 0.408,0.792c0,0.293 -0.024,0.549 -0.072,0.769c0,0.058 -0.012,0.161 -0.036,0.307c-0.024,0.147 -0.036,0.301 -0.036,0.462c0,0.659 0.364,1.15 1.092,1.472c0.728,0.323 1.748,0.484 3.06,0.484c1.36,0 2.424,-0.224 3.192,-0.67c0.768,-0.447 1.152,-1.074 1.152,-1.879c0,-0.499 -0.176,-0.927 -0.528,-1.286c-0.352,-0.359 -0.792,-0.659 -1.32,-0.901c-0.528,-0.242 -1.272,-0.539 -2.232,-0.89c-1.232,-0.44 -2.236,-0.857 -3.012,-1.253c-0.776,-0.395 -1.44,-0.934 -1.992,-1.615c-0.552,-0.681 -0.828,-1.527 -0.828,-2.538c0,-1.055 0.308,-1.993 0.924,-2.813c0.616,-0.821 1.504,-1.458 2.664,-1.912c1.16,-0.455 2.524,-0.682 4.092,-0.682c1.168,0 2.24,0.158 3.216,0.473c0.976,0.315 1.756,0.795 2.34,1.439c0.584,0.645 0.876,1.436 0.876,2.374c0,0.923 -0.152,1.619 -0.456,2.088c-0.304,0.468 -0.752,0.703 -1.344,0.703c-0.416,0 -0.764,-0.117 -1.044,-0.352c-0.28,-0.234 -0.42,-0.513 -0.42,-0.835c0,-0.278 0.024,-0.535 0.072,-0.769c0.048,-0.44 0.072,-0.718 0.072,-0.835c0,-0.616 -0.328,-1.084 -0.984,-1.407c-0.656,-0.322 -1.472,-0.483 -2.448,-0.483c-1.376,0 -2.428,0.231 -3.156,0.692c-0.728,0.462 -1.092,1.11 -1.092,1.945c0,0.557 0.188,1.033 0.564,1.428c0.376,0.396 0.844,0.726 1.404,0.989c0.56,0.264 1.344,0.579 2.352,0.945c1.216,0.455 2.192,0.865 2.928,1.231c0.736,0.366 1.364,0.865 1.884,1.495c0.52,0.63 0.78,1.406 0.78,2.329c0,1.729 -0.716,3.058 -2.148,3.989c-1.432,0.93 -3.348,1.395 -5.748,1.395c-2.128,0 -3.832,-0.37 -5.112,-1.11Zm27.768,-5.527c0.112,0.191 0.168,0.433 0.168,0.726c0,0.703 -0.232,1.12 -0.696,1.252c-0.96,0.308 -2.016,0.484 -3.168,0.528c-0.304,1.23 -0.904,2.216 -1.8,2.956c-0.896,0.739 -1.912,1.109 -3.048,1.109c-0.96,0 -1.78,-0.212 -2.46,-0.637c-0.68,-0.425 -1.196,-0.989 -1.548,-1.692c-0.352,-0.703 -0.528,-1.465 -0.528,-2.286c0,-1.113 0.232,-2.106 0.696,-2.978c0.464,-0.871 1.104,-1.553 1.92,-2.043c0.816,-0.491 1.72,-0.737 2.712,-0.737c1.216,0 2.196,0.385 2.94,1.154c0.744,0.769 1.18,1.718 1.308,2.846c0.752,-0.044 1.648,-0.19 2.688,-0.439c0.128,-0.03 0.24,-0.044 0.336,-0.044c0.208,0 0.368,0.095 0.48,0.285Zm-7.02,3.67c0.376,-0.38 0.628,-0.93 0.756,-1.648c-0.496,-0.307 -0.876,-0.71 -1.14,-1.209c-0.264,-0.498 -0.396,-1.025 -0.396,-1.582c0,-0.234 0.024,-0.469 0.072,-0.703l-0.12,0c-0.64,0 -1.172,0.282 -1.596,0.846c-0.424,0.564 -0.636,1.359 -0.636,2.384c0,0.806 0.172,1.422 0.516,1.847c0.344,0.424 0.748,0.637 1.212,0.637c0.512,0 0.956,-0.191 1.332,-0.572Zm14.712,-1.846c0.12,0.176 0.18,0.418 0.18,0.726c0,0.586 -0.152,1.04 -0.456,1.362c-0.688,0.777 -1.436,1.414 -2.244,1.912c-0.808,0.498 -1.724,0.747 -2.748,0.747c-1.408,0 -2.452,-0.586 -3.132,-1.758c-0.68,-1.172 -1.02,-2.688 -1.02,-4.549c0,-1.787 0.252,-3.824 0.756,-6.109c0.504,-2.286 1.248,-4.249 2.232,-5.89c0.984,-1.641 2.156,-2.462 3.516,-2.462c0.768,0 1.372,0.326 1.812,0.978c0.44,0.652 0.66,1.586 0.66,2.802c0,1.744 -0.528,3.766 -1.584,6.066c-1.056,2.3 -2.488,4.578 -4.296,6.835c0.112,0.6 0.296,1.029 0.552,1.285c0.256,0.257 0.592,0.385 1.008,0.385c0.656,0 1.232,-0.172 1.728,-0.517c0.496,-0.344 1.128,-0.934 1.896,-1.769c0.192,-0.205 0.408,-0.307 0.648,-0.307c0.208,0 0.372,0.088 0.492,0.263Zm-4.692,-12.021c-0.464,1.216 -0.872,2.725 -1.224,4.527c-0.352,1.802 -0.544,3.531 -0.576,5.187c1.136,-1.714 2.04,-3.432 2.712,-5.154c0.672,-1.721 1.008,-3.292 1.008,-4.714c0,-1.113 -0.224,-1.67 -0.672,-1.67c-0.368,0 -0.784,0.608 -1.248,1.824Zm4.572,16.12c-0.664,-0.432 -1.164,-1 -1.5,-1.703c-0.336,-0.703 -0.504,-1.458 -0.504,-2.264c0,-1.113 0.228,-2.106 0.684,-2.978c0.456,-0.871 1.076,-1.553 1.86,-2.043c0.784,-0.491 1.664,-0.737 2.64,-0.737c0.944,0 1.752,0.217 2.424,0.649c0.672,0.432 1.176,1 1.512,1.703c0.336,0.703 0.504,1.458 0.504,2.263c0,1.114 -0.232,2.107 -0.696,2.978c-0.464,0.872 -1.092,1.553 -1.884,2.044c-0.792,0.491 -1.668,0.736 -2.628,0.736c-0.944,0 -1.748,-0.216 -2.412,-0.648Zm4.056,-2.538c0.376,-0.542 0.564,-1.333 0.564,-2.374c0,-0.806 -0.16,-1.414 -0.48,-1.824c-0.32,-0.41 -0.704,-0.615 -1.152,-0.615c-0.576,0 -1.052,0.267 -1.428,0.802c-0.376,0.535 -0.564,1.33 -0.564,2.384c0,0.836 0.16,1.451 0.48,1.847c0.32,0.395 0.72,0.593 1.2,0.593c0.544,0 1.004,-0.271 1.38,-0.813Zm7.608,3.142c-0.44,-0.351 -0.66,-0.747 -0.66,-1.186c0,-0.381 0.152,-0.711 0.456,-0.989c0.304,-0.279 0.752,-0.418 1.344,-0.418c0.208,0 0.452,0.018 0.732,0.055c0.28,0.037 0.492,0.062 0.636,0.077c-0.016,-0.381 -0.108,-0.74 -0.276,-1.077c-0.168,-0.337 -0.38,-0.663 -0.636,-0.978c-0.256,-0.315 -0.496,-0.589 -0.72,-0.824c-0.496,0.865 -0.988,1.582 -1.476,2.154c-0.488,0.571 -1.02,1.113 -1.596,1.626c-0.288,0.264 -0.592,0.396 -0.912,0.396c-0.256,0 -0.464,-0.085 -0.624,-0.253c-0.16,-0.169 -0.24,-0.377 -0.24,-0.626c0,-0.293 0.112,-0.564 0.336,-0.814l0.312,-0.351c0.88,-0.996 1.544,-1.817 1.992,-2.462c0.272,-0.424 0.592,-0.992 0.96,-1.703c0.368,-0.71 0.728,-1.447 1.08,-2.208c0.304,-0.645 0.936,-0.967 1.896,-0.967c0.448,0 0.76,0.036 0.936,0.11c0.176,0.073 0.264,0.19 0.264,0.351c0,0.088 -0.032,0.227 -0.096,0.418c-0.064,0.19 -0.152,0.381 -0.264,0.571c-0.288,0.528 -0.432,0.974 -0.432,1.341c0,0.219 0.084,0.461 0.252,0.725c0.168,0.264 0.428,0.593 0.78,0.989c0.512,0.615 0.9,1.139 1.164,1.571c0.264,0.432 0.396,0.905 0.396,1.418c0,0.146 -0.016,0.351 -0.048,0.615c0.784,-0.278 1.704,-1.018 2.76,-2.22c0.192,-0.205 0.408,-0.307 0.648,-0.307c0.208,0 0.372,0.088 0.492,0.263c0.12,0.176 0.18,0.418 0.18,0.726c0,0.556 -0.152,1.011 -0.456,1.362c-0.8,0.909 -1.564,1.528 -2.292,1.857c-0.728,0.33 -1.628,0.509 -2.7,0.539c-0.64,0.498 -1.4,0.747 -2.28,0.747c-0.832,0 -1.468,-0.176 -1.908,-0.528Zm21,-4.703c0.12,0.176 0.18,0.418 0.18,0.726c0,0.586 -0.152,1.04 -0.456,1.362c-0.688,0.777 -1.428,1.414 -2.22,1.912c-0.792,0.498 -1.692,0.747 -2.7,0.747c-0.848,0 -1.536,-0.278 -2.064,-0.835c-0.912,0.542 -1.864,0.821 -2.856,0.835c-0.208,2.828 -0.68,5.19 -1.416,7.088c-0.736,1.897 -1.816,2.846 -3.24,2.846c-0.864,0 -1.504,-0.286 -1.92,-0.857c-0.416,-0.572 -0.624,-1.363 -0.624,-2.374c0,-1.436 0.36,-3.109 1.08,-5.021c0.72,-1.912 1.832,-4.018 3.336,-6.319c0,-2.139 -0.016,-3.626 -0.048,-4.461c-0.016,-0.425 0.168,-0.762 0.552,-1.011c0.384,-0.249 0.864,-0.373 1.44,-0.373c0.336,0 0.58,0.062 0.732,0.186c0.152,0.125 0.236,0.37 0.252,0.737c0,0.366 0.008,0.637 0.024,0.813c0.512,-0.586 1.016,-1.008 1.512,-1.264c0.496,-0.256 1.024,-0.385 1.584,-0.385c0.896,0 1.628,0.33 2.196,0.989c0.568,0.66 0.852,1.524 0.852,2.594c0,0.776 -0.136,1.531 -0.408,2.263c-0.272,0.733 -0.648,1.399 -1.128,2c0.336,0.088 0.616,0.132 0.84,0.132c0.528,0 1.032,-0.176 1.512,-0.528c0.48,-0.351 1.096,-0.937 1.848,-1.758c0.192,-0.205 0.408,-0.307 0.648,-0.307c0.208,0 0.372,0.088 0.492,0.263Zm-8.4,1.77c0.488,-0.462 0.876,-1.033 1.164,-1.715c0.288,-0.681 0.432,-1.395 0.432,-2.142c0,-0.44 -0.096,-0.773 -0.288,-1c-0.192,-0.227 -0.448,-0.341 -0.768,-0.341c-0.576,0 -1.272,0.557 -2.088,1.67c-0.016,0.645 -0.024,1.59 -0.024,2.835c0,0.674 -0.008,1.194 -0.024,1.561c0.576,-0.118 1.108,-0.407 1.596,-0.868Zm-5.1,8.175c0.288,-1.722 0.472,-3.864 0.552,-6.428c-0.688,1.465 -1.232,2.864 -1.632,4.197c-0.4,1.333 -0.6,2.454 -0.6,3.363c0,0.468 0.06,0.827 0.18,1.076c0.12,0.25 0.26,0.374 0.42,0.374c0.432,0 0.792,-0.861 1.08,-2.582Zm12.156,-6.077c-0.248,-0.586 -0.372,-1.523 -0.372,-2.813c0,-1.904 0.296,-3.714 0.888,-5.428c0.144,-0.425 0.38,-0.736 0.708,-0.934c0.328,-0.198 0.788,-0.297 1.38,-0.297c0.32,0 0.544,0.037 0.672,0.11c0.128,0.074 0.192,0.213 0.192,0.418c0,0.234 -0.12,0.762 -0.36,1.582c-0.16,0.586 -0.288,1.099 -0.384,1.538c-0.096,0.44 -0.176,0.982 -0.24,1.627c0.528,-1.26 1.12,-2.286 1.776,-3.077c0.656,-0.791 1.3,-1.355 1.932,-1.692c0.632,-0.337 1.212,-0.506 1.74,-0.506c1.04,0 1.56,0.477 1.56,1.429c0,0.19 -0.072,0.652 -0.216,1.384c-0.128,0.586 -0.192,0.953 -0.192,1.099c0,0.513 0.2,0.769 0.6,0.769c0.448,0 1.024,-0.322 1.728,-0.967c0.208,-0.19 0.424,-0.285 0.648,-0.285c0.208,0 0.372,0.084 0.492,0.252c0.12,0.169 0.18,0.392 0.18,0.671c0,0.542 -0.16,0.967 -0.48,1.274c-0.448,0.425 -0.972,0.788 -1.572,1.088c-0.6,0.301 -1.236,0.451 -1.908,0.451c-0.848,0 -1.492,-0.198 -1.932,-0.594c-0.44,-0.395 -0.66,-0.93 -0.66,-1.604c0,-0.22 0.024,-0.439 0.072,-0.659c0.032,-0.293 0.048,-0.491 0.048,-0.594c0,-0.234 -0.088,-0.351 -0.264,-0.351c-0.24,0 -0.556,0.245 -0.948,0.736c-0.392,0.491 -0.78,1.139 -1.164,1.945c-0.384,0.806 -0.696,1.656 -0.936,2.549c-0.176,0.689 -0.38,1.154 -0.612,1.396c-0.232,0.241 -0.596,0.362 -1.092,0.362c-0.608,0 -1.036,-0.293 -1.284,-0.879Zm12.132,-11.351c-0.336,-0.285 -0.504,-0.685 -0.504,-1.197c0,-0.513 0.22,-0.942 0.66,-1.286c0.44,-0.344 0.988,-0.516 1.644,-0.516c0.592,0 1.072,0.131 1.44,0.395c0.368,0.264 0.552,0.637 0.552,1.121c0,0.586 -0.208,1.051 -0.624,1.395c-0.416,0.345 -0.968,0.517 -1.656,0.517c-0.672,0 -1.176,-0.143 -1.512,-0.429Zm-0.948,11.219c-0.472,-0.674 -0.708,-1.567 -0.708,-2.681c0,-0.659 0.092,-1.505 0.276,-2.538c0.184,-1.033 0.42,-1.996 0.708,-2.89c0.144,-0.469 0.336,-0.791 0.576,-0.967c0.24,-0.176 0.624,-0.264 1.152,-0.264c0.816,0 1.224,0.249 1.224,0.748c0,0.366 -0.152,1.216 -0.456,2.549c-0.384,1.611 -0.576,2.703 -0.576,3.274c0,0.44 0.064,0.777 0.192,1.011c0.128,0.235 0.344,0.352 0.648,0.352c0.288,0 0.648,-0.183 1.08,-0.549c0.432,-0.367 1.008,-0.945 1.728,-1.737c0.192,-0.205 0.408,-0.307 0.648,-0.307c0.208,0 0.372,0.088 0.492,0.263c0.12,0.176 0.18,0.418 0.18,0.726c0,0.586 -0.152,1.04 -0.456,1.362c-1.584,1.773 -3.064,2.659 -4.44,2.659c-1.04,0 -1.796,-0.337 -2.268,-1.011Zm5.64,0.132c-0.248,-0.586 -0.372,-1.523 -0.372,-2.813c0,-1.904 0.296,-3.714 0.888,-5.428c0.144,-0.425 0.38,-0.736 0.708,-0.934c0.328,-0.198 0.788,-0.297 1.38,-0.297c0.32,0 0.544,0.037 0.672,0.11c0.128,0.074 0.192,0.213 0.192,0.418c0,0.234 -0.12,0.762 -0.36,1.582c-0.16,0.586 -0.288,1.099 -0.384,1.538c-0.096,0.44 -0.176,0.982 -0.24,1.627c0.528,-1.26 1.12,-2.286 1.776,-3.077c0.656,-0.791 1.3,-1.355 1.932,-1.692c0.632,-0.337 1.212,-0.506 1.74,-0.506c1.04,0 1.56,0.477 1.56,1.429c0,0.571 -0.176,1.604 -0.528,3.099c-0.304,1.274 -0.456,2.117 -0.456,2.527c0,0.586 0.232,0.879 0.696,0.879c0.32,0 0.7,-0.18 1.14,-0.538c0.44,-0.359 1.028,-0.942 1.764,-1.748c0.192,-0.205 0.408,-0.307 0.648,-0.307c0.208,0 0.372,0.088 0.492,0.263c0.12,0.176 0.18,0.418 0.18,0.726c0,0.586 -0.152,1.04 -0.456,1.362c-0.688,0.777 -1.428,1.414 -2.22,1.912c-0.792,0.498 -1.692,0.747 -2.7,0.747c-0.816,0 -1.432,-0.216 -1.848,-0.648c-0.416,-0.432 -0.624,-1.058 -0.624,-1.879c0,-0.41 0.112,-1.143 0.336,-2.198c0.208,-0.923 0.312,-1.56 0.312,-1.912c0,-0.234 -0.088,-0.351 -0.264,-0.351c-0.208,0 -0.5,0.245 -0.876,0.736c-0.376,0.491 -0.76,1.139 -1.152,1.945c-0.392,0.806 -0.708,1.656 -0.948,2.549c-0.176,0.689 -0.38,1.154 -0.612,1.396c-0.232,0.241 -0.596,0.362 -1.092,0.362c-0.608,0 -1.036,-0.293 -1.284,-0.879Zm20.472,-8.582c0.168,0.11 0.252,0.326 0.252,0.649c0,0.176 -0.008,0.315 -0.024,0.417c-0.064,0.454 -0.264,1.627 -0.6,3.517c-0.24,1.274 -0.392,2.117 -0.456,2.527c-0.608,3.78 -1.428,6.765 -2.46,8.955c-1.032,2.191 -2.412,3.286 -4.14,3.286c-0.816,0 -1.48,-0.231 -1.992,-0.692c-0.512,-0.462 -0.768,-1.066 -0.768,-1.814c0,-1.04 0.448,-2.157 1.344,-3.351c0.896,-1.194 2.576,-2.663 5.04,-4.406l0.144,-0.857c-0.272,0.395 -0.628,0.699 -1.068,0.912c-0.44,0.212 -0.876,0.318 -1.308,0.318c-0.992,0 -1.784,-0.329 -2.376,-0.989c-0.592,-0.659 -0.888,-1.523 -0.888,-2.593c0,-1.172 0.296,-2.282 0.888,-3.329c0.592,-1.048 1.38,-1.89 2.364,-2.528c0.984,-0.637 2.028,-0.956 3.132,-0.956c0.352,0 0.588,0.063 0.708,0.187c0.12,0.125 0.22,0.348 0.3,0.671c0.304,-0.059 0.656,-0.088 1.056,-0.088c0.4,0 0.684,0.055 0.852,0.164Zm-4.116,6.626c0.336,-0.41 0.576,-0.996 0.72,-1.758l0.768,-3.758c-0.656,0.015 -1.264,0.246 -1.824,0.693c-0.56,0.446 -1.008,1.036 -1.344,1.769c-0.336,0.732 -0.504,1.509 -0.504,2.329c0,0.454 0.1,0.791 0.3,1.011c0.2,0.22 0.476,0.33 0.828,0.33c0.368,0 0.72,-0.205 1.056,-0.616Zm-1.692,9.274c0.504,-0.879 0.988,-2.278 1.452,-4.197c-1.232,0.967 -2.12,1.839 -2.664,2.615c-0.544,0.777 -0.816,1.458 -0.816,2.044c0,0.249 0.052,0.454 0.156,0.615c0.104,0.161 0.276,0.242 0.516,0.242c0.4,0 0.852,-0.439 1.356,-1.319Z" clip-rule="nonzero"/></clipPath><g clip-path="url(#_clip1)"><g transform="matrix(1,0,0,0.91569,0,0.576469)"><path d="M537.391,28.809c-0.664,-0.472 -1.164,-1.092 -1.5,-1.86c-0.336,-0.768 -0.504,-1.592 -0.504,-2.472c0,-1.216 0.228,-2.3 0.684,-3.252c0.456,-0.952 1.076,-1.696 1.86,-2.232c0.784,-0.536 1.664,-0.804 2.64,-0.804c0.944,0 1.752,0.236 2.424,0.708c0.672,0.472 1.176,1.092 1.512,1.86c0.336,0.768 0.504,1.592 0.504,2.472c0,1.216 -0.232,2.3 -0.696,3.252c-0.464,0.952 -1.092,1.696 -1.884,2.232c-0.792,0.536 -1.668,0.804 -2.628,0.804c-0.944,0 -1.748,-0.236 -2.412,-0.708Zm4.056,-2.772c0.376,-0.592 0.564,-1.456 0.564,-2.592c0,-0.88 -0.16,-1.544 -0.48,-1.992c-0.32,-0.448 -0.704,-0.672 -1.152,-0.672c-0.576,0 -1.052,0.292 -1.428,0.876c-0.376,0.584 -0.564,1.452 -0.564,2.604c0,0.912 0.16,1.584 0.48,2.016c0.32,0.432 0.72,0.648 1.2,0.648c0.544,0 1.004,-0.296 1.38,-0.888Z" style="fill:none;"/><path d="M606.007,19.185c0.168,0.12 0.252,0.356 0.252,0.708c0,0.192 -0.008,0.344 -0.024,0.456c-0.064,0.496 -0.264,1.776 -0.6,3.84c-0.24,1.392 -0.392,2.312 -0.456,2.76c-0.608,4.128 -1.428,7.388 -2.46,9.78c-1.032,2.392 -2.412,3.588 -4.14,3.588c-0.816,0 -1.48,-0.252 -1.992,-0.756c-0.512,-0.504 -0.768,-1.164 -0.768,-1.98c0,-1.136 0.448,-2.356 1.344,-3.66c0.896,-1.304 2.576,-2.908 5.04,-4.812l0.144,-0.936c-0.272,0.432 -0.628,0.764 -1.068,0.996c-0.44,0.232 -0.876,0.348 -1.308,0.348c-0.992,0 -1.784,-0.36 -2.376,-1.08c-0.592,-0.72 -0.888,-1.664 -0.888,-2.832c0,-1.28 0.296,-2.492 0.888,-3.636c0.592,-1.144 1.38,-2.064 2.364,-2.76c0.984,-0.696 2.028,-1.044 3.132,-1.044c0.352,0 0.588,0.068 0.708,0.204c0.12,0.136 0.22,0.38 0.3,0.732c0.304,-0.064 0.656,-0.096 1.056,-0.096c0.4,0 0.684,0.06 0.852,0.18Zm-4.116,7.236c0.336,-0.448 0.576,-1.088 0.72,-1.92l0.768,-4.104c-0.656,0.016 -1.264,0.268 -1.824,0.756c-0.56,0.488 -1.008,1.132 -1.344,1.932c-0.336,0.8 -0.504,1.648 -0.504,2.544c0,0.496 0.1,0.864 0.3,1.104c0.2,0.24 0.476,0.36 0.828,0.36c0.368,0 0.72,-0.224 1.056,-0.672Zm-1.692,10.128c0.504,-0.96 0.988,-2.488 1.452,-4.584c-1.232,1.056 -2.12,2.008 -2.664,2.856c-0.544,0.848 -0.816,1.592 -0.816,2.232c0,0.272 0.052,0.496 0.156,0.672c0.104,0.176 0.276,0.264 0.516,0.264c0.4,0 0.852,-0.48 1.356,-1.44Z" style="fill:none;"/><text x="499.315px" y="29.397px" style="font-family:'Pacifico-Regular', 'Pacifico';font-size:24px;fill:none;">Sol<tspan x="545.347px " y="29.397px ">s</tspan>prin</text></g><g transform="matrix(1,0,0,0.963884,78.9795,-110.515)"><rect x="409" y="117" width="130" height="38" style="fill:#e6e9f0;"/></g></g></g></svg>